<svg width="160" height="51" viewBox="0 0 160 51" fill="none" xmlns="http://www.w3.org/2000/svg">
<path d="M33.6889 25.7429C33.6889 27.3538 34.0508 28.7663 34.7745 29.9803C35.5216 31.171 36.4905 32.0932 37.6812 32.7469C38.8719 33.3773 40.1677 33.6925 41.5685 33.6925C42.7358 33.6925 43.7748 33.5407 44.6853 33.2372C45.5958 32.9337 46.413 32.5251 47.1367 32.0115C47.8838 31.4979 48.5259 30.9376 49.0629 30.3305V35.9688C48.0589 36.7626 46.9616 37.3813 45.7709 37.8249C44.6036 38.2685 43.1211 38.4903 41.3233 38.4903C39.4556 38.4903 37.7162 38.1868 36.1053 37.5798C34.5177 36.9727 33.1286 36.0972 31.9379 34.9532C30.7705 33.8092 29.86 32.4668 29.2063 30.9259C28.5759 29.3616 28.2607 27.634 28.2607 25.7429C28.2607 23.8518 28.5759 22.1358 29.2063 20.5949C29.86 19.0306 30.7705 17.6765 31.9379 16.5325C33.1286 15.3885 34.5177 14.513 36.1053 13.906C37.7162 13.2989 39.4556 12.9954 41.3233 12.9954C43.1211 12.9954 44.6036 13.2172 45.7709 13.6608C46.9616 14.1044 48.0589 14.7231 49.0629 15.5169V21.1552C48.5259 20.5482 47.8838 19.9878 47.1367 19.4742C46.413 18.9606 45.5958 18.552 44.6853 18.2485C43.7748 17.945 42.7358 17.7932 41.5685 17.7932C40.1677 17.7932 38.8719 18.1201 37.6812 18.7738C36.4905 19.4042 35.5216 20.3147 34.7745 21.5054C34.0508 22.6961 33.6889 24.1086 33.6889 25.7429ZM55.3767 10.6841V38H50.824V10.6841H55.3767ZM61.2251 28.1943C61.2251 27.1203 61.0149 26.3032 60.5947 25.7429C60.1978 25.1825 59.5207 24.9024 58.5635 24.9024C57.9331 24.9024 57.3728 25.0424 56.8825 25.3226C56.3922 25.5794 56.0187 25.953 55.7619 26.4433C55.5051 26.9336 55.3767 27.5172 55.3767 28.1943H54.4661C54.4661 26.9102 54.6762 25.7545 55.0965 24.7273C55.5401 23.7 56.1938 22.8829 57.0576 22.2758C57.9215 21.6688 58.9838 21.3653 60.2445 21.3653C61.5052 21.3653 62.5442 21.5988 63.3613 22.0657C64.1785 22.5327 64.7855 23.2331 65.1824 24.1669C65.5793 25.0775 65.7777 26.1981 65.7777 27.5289V38H61.2251V28.1943ZM66.7123 29.9453C66.7123 28.2643 67.0975 26.7935 67.868 25.5327C68.6618 24.272 69.7241 23.2914 71.0549 22.591C72.409 21.8906 73.9382 21.5404 75.6425 21.5404C77.3469 21.5404 78.8644 21.8906 80.1952 22.591C81.5493 23.2914 82.6116 24.272 83.382 25.5327C84.1758 26.7935 84.5727 28.2643 84.5727 29.9453C84.5727 31.6029 84.1758 33.0738 83.382 34.3579C82.6116 35.6186 81.5493 36.5992 80.1952 37.2996C78.8644 38 77.3469 38.3502 75.6425 38.3502C73.9382 38.3502 72.409 38 71.0549 37.2996C69.7241 36.5992 68.6618 35.6186 67.868 34.3579C67.0975 33.0738 66.7123 31.6029 66.7123 29.9453ZM71.335 29.9453C71.335 30.8558 71.5218 31.6613 71.8953 32.3617C72.2922 33.0388 72.8175 33.5758 73.4713 33.9727C74.125 34.3462 74.8487 34.533 75.6425 34.533C76.4363 34.533 77.1601 34.3462 77.8138 33.9727C78.4675 33.5758 78.9811 33.0388 79.3547 32.3617C79.7516 31.6613 79.95 30.8558 79.95 29.9453C79.95 29.0348 79.7516 28.2293 79.3547 27.5289C78.9811 26.8285 78.4675 26.2915 77.8138 25.918C77.1601 25.5444 76.4363 25.3576 75.6425 25.3576C74.8487 25.3576 74.125 25.5444 73.4713 25.918C72.8175 26.2915 72.2922 26.8285 71.8953 27.5289C71.5218 28.2293 71.335 29.0348 71.335 29.9453ZM89.9719 21.8906V38H85.5243V21.8906H89.9719ZM94.6996 26.6184C94.3961 26.3382 94.081 26.1281 93.7541 25.988C93.4506 25.8246 93.0654 25.7429 92.5984 25.7429C92.0381 25.7429 91.5595 25.8946 91.1626 26.1981C90.7657 26.5016 90.4622 26.9336 90.2521 27.4939C90.0653 28.0309 89.9719 28.6846 89.9719 29.455L88.7112 28.1943C88.7112 26.9102 88.9563 25.7779 89.4466 24.7973C89.9369 23.7934 90.5789 22.9996 91.3727 22.4159C92.1665 21.8089 92.9836 21.5054 93.8241 21.5054C94.4078 21.5054 94.9565 21.6104 95.4701 21.8206C96.0071 22.0307 96.439 22.3459 96.7659 22.7661L94.6996 26.6184ZM108.871 10.6841H113.423V38H108.871V10.6841ZM95.6329 29.9453C95.6329 28.1476 95.9948 26.63 96.7185 25.3927C97.4423 24.1319 98.3995 23.1747 99.5902 22.521C100.781 21.8673 102.042 21.5404 103.372 21.5404C104.727 21.5404 105.917 21.8789 106.944 22.556C107.995 23.2331 108.812 24.202 109.396 25.4627C110.003 26.7001 110.306 28.1943 110.306 29.9453C110.306 31.673 110.003 33.1672 109.396 34.4279C108.812 35.6887 107.995 36.6576 106.944 37.3346C105.917 38.0117 104.727 38.3502 103.372 38.3502C102.042 38.3502 100.781 38.0233 99.5902 37.3696C98.3995 36.7159 97.4423 35.7587 96.7185 34.498C95.9948 33.2372 95.6329 31.7197 95.6329 29.9453ZM100.326 29.9453C100.326 30.9025 100.524 31.7313 100.921 32.4318C101.318 33.1322 101.855 33.6691 102.532 34.0427C103.209 34.4162 103.933 34.603 104.703 34.603C105.38 34.603 106.034 34.4279 106.664 34.0777C107.318 33.7042 107.843 33.1672 108.24 32.4668C108.66 31.7664 108.871 30.9259 108.871 29.9453C108.871 28.9647 108.66 28.1242 108.24 27.4238C107.843 26.7234 107.318 26.1981 106.664 25.8479C106.034 25.4744 105.38 25.2876 104.703 25.2876C103.933 25.2876 103.209 25.4744 102.532 25.8479C101.855 26.2215 101.318 26.7584 100.921 27.4589C100.524 28.1593 100.326 28.9881 100.326 29.9453Z" fill="#7FC1FE"/>
<path d="M121.077 38.3502C119.747 38.3502 118.579 38.0584 117.575 37.4747C116.571 36.891 115.789 36.0505 115.229 34.9532C114.669 33.8559 114.389 32.5368 114.389 30.9959C114.389 29.7352 114.61 28.5445 115.054 27.4238C115.521 26.2798 116.151 25.2759 116.945 24.4121C117.762 23.5249 118.708 22.8245 119.782 22.3109C120.879 21.7972 122.07 21.5404 123.354 21.5404C124.708 21.5404 125.864 21.8089 126.821 22.3459C127.801 22.8829 128.56 23.6767 129.097 24.7273C129.634 25.7545 129.903 27.0386 129.903 28.5795C129.903 28.9297 129.856 29.3149 129.762 29.7352C129.692 30.1554 129.611 30.4589 129.517 30.6457H116.105V28.2643H127.661L126.576 29.8753C126.692 29.5951 126.797 29.3033 126.891 28.9998C126.984 28.6729 127.031 28.346 127.031 28.0192C127.031 27.1787 126.879 26.4666 126.576 25.8829C126.295 25.2759 125.875 24.809 125.315 24.4821C124.755 24.1553 124.042 23.9918 123.179 23.9918C122.291 23.9918 121.474 24.1786 120.727 24.5522C120.003 24.9024 119.373 25.3927 118.836 26.023C118.299 26.6534 117.879 27.3888 117.575 28.2293C117.295 29.0464 117.155 29.9103 117.155 30.8208C117.155 31.778 117.307 32.6302 117.61 33.3773C117.914 34.1244 118.381 34.7081 119.011 35.1283C119.642 35.5252 120.447 35.7237 121.428 35.7237C122.525 35.7237 123.517 35.4552 124.404 34.9182C125.315 34.3579 126.062 33.6575 126.646 32.817L128.852 34.2528C128.011 35.4435 126.937 36.4241 125.63 37.1945C124.323 37.965 122.805 38.3502 121.077 38.3502ZM144.716 21.8906H147.378L144.576 38H142.02L144.716 21.8906ZM130.078 29.9453C130.311 28.3577 130.86 26.9336 131.724 25.6728C132.611 24.3887 133.696 23.3731 134.981 22.626C136.288 21.8789 137.7 21.5171 139.218 21.5404C140.292 21.5404 141.191 21.7739 141.915 22.2408C142.662 22.7078 143.245 23.3381 143.666 24.1319C144.086 24.9257 144.354 25.8246 144.471 26.8285C144.611 27.8091 144.611 28.848 144.471 29.9453C144.308 31.0893 144.004 32.1749 143.561 33.2022C143.117 34.2061 142.557 35.0933 141.88 35.8638C141.202 36.6342 140.409 37.2412 139.498 37.6848C138.611 38.1051 137.63 38.3152 136.556 38.3152C135.039 38.3152 133.755 37.9416 132.704 37.1945C131.677 36.4241 130.93 35.4085 130.463 34.1478C129.996 32.8637 129.868 31.4629 130.078 29.9453ZM132.879 29.9453C132.739 30.9726 132.809 31.9298 133.089 32.817C133.37 33.6808 133.848 34.3812 134.525 34.9182C135.226 35.4318 136.089 35.6887 137.117 35.6887C137.817 35.6887 138.494 35.5486 139.148 35.2684C139.825 34.9649 140.444 34.5563 141.004 34.0427C141.564 33.5057 142.031 32.887 142.405 32.1866C142.802 31.4862 143.07 30.7391 143.21 29.9453C143.327 29.1749 143.315 28.4511 143.175 27.774C143.035 27.097 142.79 26.49 142.44 25.953C142.09 25.416 141.646 24.9958 141.109 24.6922C140.595 24.3654 139.988 24.1903 139.288 24.1669C138.261 24.1436 137.292 24.3887 136.381 24.9024C135.471 25.3927 134.7 26.0814 134.07 26.9686C133.463 27.8558 133.066 28.848 132.879 29.9453ZM149.47 33.1322C149.797 33.6224 150.158 34.0777 150.555 34.498C150.976 34.8949 151.454 35.2217 151.991 35.4785C152.528 35.712 153.123 35.8287 153.777 35.8287C154.571 35.8287 155.213 35.6186 155.703 35.1984C156.194 34.7548 156.439 34.2178 156.439 33.5874C156.439 33.0504 156.275 32.5952 155.948 32.2216C155.622 31.8481 155.213 31.5329 154.723 31.2761C154.232 30.9959 153.742 30.7508 153.252 30.5407C152.645 30.3072 152.026 30.0153 151.396 29.6651C150.765 29.2916 150.24 28.8247 149.82 28.2643C149.4 27.6807 149.189 26.9452 149.189 26.058C149.189 25.0308 149.446 24.1903 149.96 23.5366C150.474 22.8595 151.127 22.3575 151.921 22.0307C152.738 21.7038 153.579 21.5404 154.443 21.5404C155.727 21.5404 156.847 21.8439 157.805 22.4509C158.762 23.0346 159.485 23.77 159.976 24.6572L157.91 26.058C157.466 25.451 156.929 24.9491 156.299 24.5522C155.692 24.1319 155.015 23.9218 154.267 23.9218C153.544 23.9218 152.96 24.0852 152.516 24.4121C152.096 24.7389 151.886 25.1709 151.886 25.7078C151.886 26.1281 152.014 26.5016 152.271 26.8285C152.528 27.132 152.867 27.4005 153.287 27.634C153.73 27.8674 154.209 28.1009 154.723 28.3344C155.517 28.6846 156.252 29.0581 156.929 29.455C157.606 29.8519 158.143 30.3539 158.54 30.9609C158.96 31.5446 159.17 32.315 159.17 33.2722C159.17 34.2061 158.925 35.0583 158.435 35.8287C157.968 36.5992 157.314 37.2179 156.474 37.6848C155.633 38.1284 154.664 38.3502 153.567 38.3502C152.493 38.3502 151.524 38.1634 150.66 37.7899C149.82 37.393 149.108 36.891 148.524 36.284C147.94 35.677 147.497 35.0583 147.193 34.4279L149.47 33.1322Z" fill="white"/>
<path d="M20.25 33.9375C20.25 35.8022 18.36 37.3125 16.0312 37.3125C13.7025 37.3125 11.8125 35.8022 11.8125 33.9375C11.8125 32.0728 13.7025 30.5625 16.0312 30.5625C18.36 30.5625 20.25 32.0728 20.25 33.9375Z" fill="white"/>
<path fill-rule="evenodd" clip-rule="evenodd" d="M20.25 17.0625V33.9375H18.5625V17.0625H20.25Z" fill="white"/>
<path d="M18.5625 16.7588C18.5627 16.3688 18.698 15.991 18.9454 15.6895C19.1927 15.388 19.5368 15.1815 19.9192 15.105L24.9818 14.0925C25.2265 14.0436 25.479 14.0496 25.7211 14.11C25.9633 14.1705 26.189 14.2839 26.382 14.442C26.5751 14.6002 26.7306 14.7992 26.8375 15.0248C26.9443 15.2503 26.9998 15.4967 27 15.7463V18.75L18.5625 20.4375V16.7588Z" fill="white"/>
<path fill-rule="evenodd" clip-rule="evenodd" d="M0 31.4062C0 31.1825 0.0888948 30.9679 0.247129 30.8096C0.405362 30.6514 0.619974 30.5625 0.84375 30.5625H6.75C6.97378 30.5625 7.18839 30.6514 7.34662 30.8096C7.50485 30.9679 7.59375 31.1825 7.59375 31.4062C7.59375 31.63 7.50485 31.8446 7.34662 32.0029C7.18839 32.1611 6.97378 32.25 6.75 32.25H0.84375C0.619974 32.25 0.405362 32.1611 0.247129 32.0029C0.0888948 31.8446 0 31.63 0 31.4062ZM0 24.6562C0 24.4325 0.0888948 24.2179 0.247129 24.0596C0.405362 23.9014 0.619974 23.8125 0.84375 23.8125H13.5C13.7238 23.8125 13.9384 23.9014 14.0966 24.0596C14.2549 24.2179 14.3438 24.4325 14.3438 24.6562C14.3438 24.88 14.2549 25.0946 14.0966 25.2529C13.9384 25.4111 13.7238 25.5 13.5 25.5H0.84375C0.619974 25.5 0.405362 25.4111 0.247129 25.2529C0.0888948 25.0946 0 24.88 0 24.6562ZM0 17.9062C0 17.6825 0.0888948 17.4679 0.247129 17.3096C0.405362 17.1514 0.619974 17.0625 0.84375 17.0625H13.5C13.7238 17.0625 13.9384 17.1514 14.0966 17.3096C14.2549 17.4679 14.3438 17.6825 14.3438 17.9062C14.3438 18.13 14.2549 18.3446 14.0966 18.5029C13.9384 18.6611 13.7238 18.75 13.5 18.75H0.84375C0.619974 18.75 0.405362 18.6611 0.247129 18.5029C0.0888948 18.3446 0 18.13 0 17.9062Z" fill="white"/>
</svg>
